<?xml version="1.0" encoding="UTF-8"?><svg id="Calque_1" xmlns="http://www.w3.org/2000/svg" viewBox="0 0 261.93 336.28"><defs><style>.cls-1{fill:#0f606b;}</style></defs><path class="cls-1" d="M173.57,7.04C102.23-16.2,26.46,20,4.36,87.89c-14.36,44.1,9.4,92.96,33.27,128.91,2.57,3.87,4.91,7.62,7.1,11.27,4.88,8.51,20.07,42.24,22.32,53.48,.75,3.75,2.38,6.5,4.23,8.51,.79,.99,1.93,1.99,3.51,2.92,2.86,1.8,5.36,2.29,5.36,2.29h0c.65,.2,1.32,.39,2.05,.58,0,0,6.71,2.53,12.71,1.19,.16-.03,.31-.07,.47-.1,.14-.04,.29-.07,.43-.11,.83-.22,1.52-.51,2.08-.85,.61-.32,1.21-.67,1.76-1.12,10.89-8.8,29.43-25.96,62.85-45.02h0c30.69-17.79,64.38-40.42,86.52-80.12,34.77-62.36-4.09-139.45-75.44-162.68Zm-19.97,33.23c.54-.19,1.39,.17,1.39,.17,0,0,.36,.13,.6-.06,.24-.19,.34-.74,.66-.85,.31-.12,.69,.21,.48,.34-.2,.13-.54,.76-.54,.76,0,0,.17,.49-.28,.51-.45,0-.57,0-.96-.11-.39-.11-.59-.35-.59-.35-.73-.05-1.3-.2-.75-.39Zm-1.65,.39c-.28,.2-.72,0-1.26,.2-.54,.19-.42,.66-.83,.4-.41-.26-1.26-.52-1.26-.52-.27-.31,.26-.55,.47-.42h0c.2,.13-.33,.37,.69,.1,1.04-.27,2.48,.04,2.19,.25Zm-4.62-1.47c.22-.39,.4-.34,.51-.18,.1,.16,.55,.67,.75,.65,.2-.01,1.53,.27,.89,.34h0c-.64,.08-1.69,.15-1.68,.15-.27-.32-.68-.59-.45-.97Zm-.35,10.46c-.35,.04-.78,.07-.78,.07-.39-.14-1.07-.27-1.28-.56-.22-.3,.06-.61,.43-.44h0c.36,.17,.74,.5,1.21,.66,.48,.16,.79,.24,.42,.27Zm-7.18-4.46c.33-.31,.65-.5,.52-.8-.13-.3-.69-.5-.36-.62,.33-.12,.35-.25,.9-.15,.53,.08,.78,.18,1-.11,.23-.29-.31-.8,.03-.94,.32-.14,.97-.2,1.1-.16,.13,.05,.34-.17,.6-.4,.27-.23,.32-.42,.48-.22,.17,.2,.5,.36,.75,.41,.26,.05,.89,0,1.07,.18,.17,.16,.85,.62,.28,.53-.57-.1-.73-.69-.75-.36-.02,.33-.1,.26-.56,.31-.47,.06-1.02,0-.88,.21,.14,.2,.61,.61,.15,.71-.45,.09-1.14,.25-.96,.54,.16,.29,.9,.51,.33,.55-.57,.05-1.09-.19-1.23,.15-.14,.33-.13,.55-.27,.49-.14-.07-1.03-.24-1.04-.24-.41,.08-1.49,.24-1.16-.07Zm-.02,1.52c.21-.05-.11-.31,.13-.6,.24-.3,.58-.43,1.11-.37,.54,.06,1.04-.02,1.14,.27,.09,.29,.25,.73,.51,1.17,.25,.44,.42,.59,.78,.69,.37,.1,.95,.36,.83,.52-.1,.15,.17,.22-.45,.21-.61-.02-1.37,0-1.37,0-.64-.08-.27-.56-.59-.67-.33-.12-.08,.19-.36,.32-.28,.12-.53,.23-.8,.1-.29-.13,0-.35-.17-.59h0c-.16-.25-.45-.13-.66-.42-.23-.3-.31-.57-.11-.62Zm-17.89-8.65c.38-.08,.54-.24,.49,.34-.05,.58,.27,.46,.47,.45,.2-.02,.28,.36,.49,.23h0c.21-.12-.15-.71,.19-.78,.33-.06,3.39,.37,2.93,.63-.46,.28-1.28,.27-1.77,.49-.49,.22-1.29,.25-1.28,.56,0,.3-.22,.81-.22,.81-.91,.32-1.65,.27-1.18-.3,.46-.58,.68-.96,.36-1-.32-.04,.1-.4-.29-.21-.39,.2-1.25,.35-.67-.16,.57-.52,.12-.96,.49-1.05Zm4.58,2.31c-.73,.41-.9,.21-1.33,.16-.43-.05-.88-.04-.88-.04,.27-.4,.61-.73,1.22-.58h0c.62,.14,1.71,.05,.98,.47Zm-49.59,2.6c.4-.29,1.86-2.09,2.79-2.48,.94-.39,3.24-1.41,4.7-2.04,1.46-.63,2.51-.85,3.64-1.26,1.13-.4,2.84-.81,4.15-1.28,1.31-.47,4.15-.98,4.93-1.25,.76-.27,1.92-.37,2.5-.58,.59-.22,3.98-1.18,5.25-1.37,1.25-.2,1.34-.12,1.54-.56,.2-.43,1.42-.61,2.16-.82,.74-.21,2.55-.3,3.21-.33,.65-.02,1.67-.18,3.12,.27,1.44,.46,.72,.31,1.84,.58,1.12,.26,2.22,.18,2.96,.57,.75,.4,1.94,.85,2.04,1.27,.1,.42-1.48,.28-1.91,.23-.43-.05-2.06,.42-3.14,.71-1.08,.28-1.36,.18-2.14,.3-.78,.12-1.48,.32-1.9,.57-.42,.26-1.35,.49-1.63,.59-.27,.1-2.12,.66-2.35,.59-.22-.07-1.27,.3-1.28,.56,0,.26-.86,.16-1.22,.29-.37,.13-1.39,.59-1.84,.76-.45,.16-.36-.28-.49-.39-.14-.1-2.7,1.17-3.55,1.53-.85,.36-1.05-.08-.86-.25,.2-.17-.98-.01-1.33,.16-.34,.18-.63,.39-.24,.6,.38,.21-.27,.55-.92,.73l-.28-.36s-1.31,.21-1.64,.28c-.33,.07-.77-.13-.86-.41-.11-.27-.86-.25-1.19-.18-.34,.06-2.11,.09-2.57,.25-.46,.17-1.6,.42-2.09,.6-.5,.18-.64-.19-.64-.19,0,0-1.17,.17-1.73,.32-.55,.16-1.48,.02-2.11,.09-.64,.08-.84,.51-1.31,.78-.47,.27-1.79,.43-2.29,.62-.5,.18-3.06,1.15-3.47,1.3h0c-.42,.14-.28-.48,.13-.77Zm12.62,14.71c.27,.02,.38,.17,.4,.35,.01,.18-.61,1.22-.88,1.45-.26,.24-1.27,.71-1.11,1.01,.15,.3,.43,.24,.26,.6-.18,.37-.94,1.15-.84,1.35,.09,.19,.52-.23,.58,.07,.07,.3-.44,.53-.33,.82,.1,.29,.18,.45,.43,.85,.26,.39,.58,.26,.76,.61,.17,.36,.26,.67-.26,.91-.52,.24-.94,.16-1.07,.51-.14,.34,.05,.62-.67,.75-.73,.11-1.16,0-1.41,.34-.26,.34-.06,.56-.09,.79-.02,.25-.74,.55-.74,.55-.85-.07-.87-.02-1.56-.12-.69-.1-1.82-.6-2.26-.83-.43-.22-.21-.62-.87-.34-.67,.28-.84,.53-1.38,.5-.56-.04-1.54-.57-1.18-.83,.34-.26,.68-.04,1.4-.2,.71-.16,.59-.16,1.14-.84,.54-.69,1.49-2.03,1.87-2.26,.39-.23,1.41-.43,1.76-.86,.37-.43,.89-.89,1.22-1.02,.32-.14,.35-.36,.24-.5-.11-.14-.63-.4-.69-.55-.05-.14,.76-.88,.9-1.25,.15-.38,.81-1.01,.95-1.3,.16-.28,.49-.52,.23-.64-.24-.12-.54-.16-.93,0-.38,.16-1.08,.37-.77,.05,.3-.33,.74-.38,.99-.47,.25-.09,.62-.24,.76-.36,.14-.12,.52-.23,.55-.06,.04,.18,.22,.4,.47,.19,.25-.21,.98-.98,1.5-1.12,.5-.14,.93,.15,.99,.32,.06,.17,.33,.52,.46,.47,.11-.05-.09,.43-.52,.58h0c-.44,.15-.59,.49-.33,.51Zm-10.1,2.44c.71-.26,.74-.25,.86,.06,.1,.31,.24,.61,.67,.11,.42-.5,.47-.87,.98-.96,.5-.09,.71-.26,.81-.01,.08,.25-.25,.55,0,.67,.25,.12,.61-.29,.73,.04,.12,.33,.19,.72-.07,.91-.26,.18-.37,.21-.95,.46-.59,.26-.88,.34-1.13,.75-.26,.42-1.24,1.19-1.47,1.46-.23,.27-.44,.65-.55,.73-.1,.09-.27,.1-.27,.1-.35-.1-.48-.05-.92-.03-.43,.01-.38-.24-.93-.26-.54-.01-.85,.52-1.06,.15-.23-.36-.26-.7-.15-1h0c.13-.29,.78-1.14,1.09-1.17,.31-.04,.12,1.12,.71,.4,.57-.72,.93-.94,1.22-1.44,.29-.5-.33-.7,.41-.96Zm5.44-3.42c.28-.13,.55-.41,.5-.21h0c-.04,.2-.29,.54-.29,.55-.23,.06-.5-.22-.21-.34Zm.71-.02c.04-.27,.65-.33,.65-.33,0,0,.08,.22-.17,.36h0c-.26,.13-.49-.03-.48-.03Zm.85-.4c.14-.2,.25-.34,.42-.54,.16-.2,.52-.42,.8-.51,.26-.1,.73-.41,.52,.1-.2,.52-.67,.85-.96,.95h0c-.29,.11-.64,.11-.73,.15-.1,.04-.03-.15-.03-.15Zm3.06-8.7c-.52-.07-.51-.17-1.17-.3-.66-.12-1.11-.52-1.36-.63-.25-.12,1.29-.98,1.83-1.48,.53-.5,1.57-.87,2.09-.9,.5-.03,.2,.28,.89,.34,.68,.06,1.19-.37,1.47-.32,.28,.06,1.57,.06,1.32,.51h0c-.25,.45-.53,1.26-1,1.63-.48,.38-1.46,.79-1.46,.79-.99,.24-1.1-.08-1.48,.01-.38,.08-.56,.41-1.11,.35Zm-14.12,15.34c.42-.25,.84-.7,.78-.38-.08,.34-.71,.91-.71,.91h0c-.22-.1-.5-.29-.07-.53Zm64.5,148.36c-.41-.1-.23-1.15-.61-.63-.36,.51-1.12,1.12-1.5,1.34-.38,.23-.3,.45-.03,.39,.28-.06,1.05-.03,.77,.61-.28,.65-.58,1.19-.89,.83-.29-.36-.76-.74-.7-.21,.06,.53,.27,.88-.24,1.69-.51,.82-.87,1.46-.83,1.82,.05,.36-.05,.45-.36,.76-.3,.33-.51,.7-.53,1.12-.01,.43-.3,.32-.61,.77-.31,.45-.73,.94-.93,1.31-.2,.36-.6,.92-.9,1.62-.3,.69-.51,1.06-1.05,1.43-.55,.36-.87,.65-1.57,.81-.71,.17-.64-.02-1.15,.34-.51,.35-.28,.77-1.21,.54-.91-.21-1.26-.34-1.86-1.06-.59-.71-.82-1.35-.87-2.34-.06-.99,.73-3.14,.98-3.73,.24-.6,.88-1.67,1.27-2.11,.38-.44,.25-1.33,.05-1.87-.2-.57,.4-1.62,.4-1.62,.46-1.31,.76-2.35,1.36-2.35,.59,0,.83-.17,1.41-.42,.58-.26,1.28-.07,1.97-.62,.69-.55,.75-1.24,1.06-.93,.33,.31,.15,.79,.6,.5,.44-.29,.16-.52,1.25-.62,1.11-.1,.79-.19,.99-.78,.21-.58,.77-.45,1.2-.9,.42-.46-.09-.85,.69-1.72h0c.79-.88,1.36-1.6,1.48-1.3,.12,.3-.51,1.62-.01,1.96,.5,.33,1.17,.55,1.1,1.39-.09,.83-.42,2.18-.44,2.81-.02,.64,.12,1.28-.3,1.17Zm61.01-47.77c.1,.24-.05,.75-.27,1.34-.23,.58,.25,1-.42,1.06-.66,.08-1.1,.29-1.33-.06-.23-.34-.05-.86-.27-1.34-.21-.48-.49-.53-.48-.83,0-.3,.06-1.02,.06-1.02,.08-1.06,.06-1.29,.1-1.55,.05-.25,0-.28-.04-.49-.04-.22,.3-1.29,.53-1.62,.23-.32,.51-.45,.58-.24,.08,.21,.32,.96,.66,1.24h0c.35,.29,.73,.26,.84,.47,.08,.22,.06,.62,.15,1.12,.09,.5-.04,.94-.09,1.22-.05,.27-.14,.45-.03,.7Zm26.4-17.43c-.39,.81-.95,1.01-.81,1.98,.13,.96-.05,1.37-.42,2.6-.36,1.23-.68,2.14-.79,1.6-.11-.55,.46-2.49,.24-3.09-.21-.6-.3-.4-1.07-.85-.75-.45-1.04-2.92-1.07-3.13-.03-.2-.34,.34-.67,.12-.34-.22-.2-1.12-.54-.9-.35,.2-.04,1.19-.08,1.8-.04,.61-.23,1.47-.08,1.93,.17,.45,.17,.91-.03,1.44-.19,.54-.59,1.19-.63,1.92-.04,.73-.32,1.6,.06,1.46,.38-.14,.45-.88,.66-.16,.22,.73,.52,1.6,.54,2.1,.02,.51-.02,1.7,.37,1.94,.38,.25,.65-.32,.83,.46,.2,.78,.24,1.02,.57,1.58,.33,.56,.67,.82,.46,1.4-.22,.58-.61,1.95-.47,2.57,.14,.63,.39,2.28,.32,2.68-.06,.41-.12,2.02-.89,.95-.76-1.07-1.35-3.78-1.49-4.5-.12-.71,.17-2.25-.16-3.19-.34-.93-.82-.97-1.06-1.9-.26-.93-.93-2.12-1.12-2.65-.18-.52,.13-1.19,.45-1.35,.32-.16,.54-1.07,.55-2.43,.03-1.36,.01-2.11-.48-2.66-.48-.54-.55-1.57-.41-2.56,.15-.99-.77-1.92-.91-2.42-.13-.5-.41-2.9-.69-3.48-.29-.57-.71,.04-.66,.41,.04,.36-.5,.73-.56,1.26-.06,.53,.2,1.5-.45,1.6-.64,.1-.82-.3-1.1-1.18-.26-.87,.04-3.09-.12-3.79-.17-.7-.43-1.66-.7-1.7-.27-.04-.34,.24-.58-.43-.23-.67-.45-.77-.65-1.24-.22-.47,.03-1.16-.3-1.38-.33-.21-.44,.54-.72,.1-.29-.46-.57-1.83-1.07-2.04-.5-.2-.77,.45-.92-.09-.16-.53-.07-1.24-.55-.94-.48,.3-1.33,.77-1.51,1.08-.18,.32-.39,.1-.77,.58-.38,.47-.28,.77-.56,.78-.28,.02-.85,.1-.9,.92-.04,.81-.17,1.29-.14,1.95,.02,.67-.45,.76-.49,1.27-.03,.51-.25,.26-.59,.25-.33,0-.2,.37-.04,.69,.17,.33-.26,.56-.48,1.02-.22,.46-.42,.95-.63,1.45-.21,.5-.97,1.32-1.09,1.79-.13,.46-.32,1-.57,1.13-.25,.13-.81,.09-.87,.52-.05,.45-.19,1.21-.7,1.91-.52,.68-1.21,1.23-1.27,1.63-.07,.41,.07,1.04-.08,1.8-.14,.78-.19,.79,.02,1.26,.22,.47,.03,.88-.02,1.45-.05,.57-.1,1.39-.09,1.77,0,.38-.93,1.56-.74,2.17,.17,.62,.49,1.26,.37,1.73-.13,.48-.23,.21-.73,.68-.5,.48-.66,1.09-.49,1.58,.18,.49-.35,.77-.64,1.16-.28,.39-.31-.18-.74,.52-.43,.7-.21,1.3-.66,1.46-.45,.16-1.08,.65-1.4-.26-.32-.89-.93-1.65-.99-2.27-.05-.61-.68-1.9-1.25-2.8-.58-.89-1.08-2.32-1.36-3.1-.28-.79-.37-1.39-.64-2.39-.28-1.01-1.03-1.67-1.26-2.55-.23-.89-.73-1.32-.93-1.91-.22-.6-.22-1.31-.41-1.84-.19-.53-.75-1.17-.82-2.75-.04-1.58-.29-3.32-.4-4.08-.1-.77-.45-1.24-.42-1.63,.03-.39,.43-.83,.33-1.22-.09-.38,.07-1.33-.21-1.43-.3-.12-.96-.22-.73,.21,.24,.42,.65,1.21,.29,1.67-.33,.45-.69,.16-.95,.63-.26,.47-.4,1.16-.9,.92-.51-.25-.47-.6-.81-.99-.35-.37-1.16-.51-1.29-.76-.13-.25-.35-.51,.22-1.14,.58-.63,1.22-.98,.9-1.16-.32-.18-1.28,.54-1.72,.14-.43-.39-.14-.28-.7-.68-.57-.39-.92-.56-1.49-.94-.55-.4-1.14-1.32-1.22-1.55-.09-.22-.37-.2-.61-.5-.23-.3-.42-1.07-.86-1.22-.42-.13-1.72,.25-2.63,.32-.9,.07-1.17,.16-1.98,0-.82-.17-1.72-.19-2.43,.07-.71,.25-.64,.78-1.73,.7-1.09-.07-2.69-.43-3.57-.87-.88-.45-1.16-.31-1.88-.64-.7-.33-1.79-.5-2.08-1.45-.29-.94-.98-1.76-1.57-1.8-.61-.04-1.19,1.06-2.1,1-.91-.05-2.12-.12-2.87-.44-.76-.33-.95-1.01-1.65-1.53-.69-.51-1.31-.34-1.65-.84-.35-.51-.51-1.51-.83-2.55-.33-1.03-.05-1.89-.67-2.25-.64-.36-1.55,.29-1.8-.08-.26-.37,.51-.82-.12-1.14-.63-.33-1.04,.5-.96,.86,.08,.35-.6,.46-.92,.37-.34-.1-.45-.06-.19,.69,.28,.75,.32,1.11,1.05,1.86,.75,.75,.73,.5,1.04,1.45,.3,.95,.04,1.3,.66,1.41,.65,.11,.95,.3,1.11,.83,.15,.54-.77,.57-.18,.91,.58,.34,.88-.23,1.11,.41,.23,.63,.55,.95-.05,1.16-.6,.22-.76,1.41-.41,1.46,.35,.05,.64-.7,1.28-1.01,.65-.32,1.33-.05,1.19,.81-.16,.86-.95,1.01-.52,1.62,.43,.61,1.84,.4,2.59,.29,.77-.1,1.57,.97,2.67-.19,1.11-1.16,1.6-2.86,2.1-3.13,.49-.26,1.59-.61,1.57,.75-.02,1.37,.07,3.11,.27,3.33,.21,.22,3.14,1.2,3.56,1.31,.42,.1,.84,1.05,1.31,1.9,.47,.84,.79,.9,.4,1.67-.41,.77-1.12,.99-1.06,1.77,.07,.78,.07,1.96-.37,1.82-.42-.14-.55-.73-1.03-.56-.49,.17-.73,.43-.45,1.01,.29,.57,.72,1.65,.68,2.51-.02,.85,.26,1.09-.35,1.13-.61,.06-1.21-1-1.82-.48-.62,.52-.61,.65-.62,1.36,0,.72,.49,.8-.79,.97-1.3,.17-.94,.59-1.58,.9-.65,.31-1.53,.08-2.34,.45-.79,.38-1.06,.56-1.38,.62-.31,.07-.39,.1-.99,.31-.59,.22-.89-.01-1.37,.79-.47,.8-.87,1.2-1.36,1.38-.48,.17-1.77,.25-2.84,.59-1.06,.33-2.04,.69-2.81,1.09-.78,.41-1.1,.82-2.04,.81-.94,0-1.87,.46-2.78,.75-.91,.28-1.94-.11-2.51,.09-.56,.2-1.21,.73-2.24,1.05-1.03,.32-1.75,.54-2.21-.26-.46-.81,.09-1.63-.35-2.54-.46-.9-1-1.47-1.18-2.08-.18-.61,.32-1.8,.51-1.79,.17,.02,.92,.6,.78-.06-.16-.67-1.34-2.31-1.51-3.39-.19-1.08-.8-2.09-1.02-2.6-.23-.51-1.37-2.76-2.31-3.61-.95-.85-1.69-1.76-1.9-2.92-.2-1.15,.83-2.66,.63-3.31-.18-.65-.72-.84-.82-1.39-.12-.55,.35-.76-.47-1.31-.83-.54-1.83-.27-2.09-.98-.25-.72,.42-1.21,.11-2.79-.32-1.58-1.58-2.52-2.28-3.66-.71-1.14-1.41-1.7-1.64-2.58-.24-.89,.36-1.23,.53-1.71,.16-.48-.39-.62-.71-.09-.32,.54-.19,2.1-.6,2.24-.41,.15-.86,.43-1.14-.48-.28-.91,.19-1.12-.53-1.59-.72-.46-.85-.5-1.17-.88-.3-.4-.52-.15-.22,.42,.28,.57,.57,1.87,.88,2.1,.29,.23,.68,.51,.77,1.34,.08,.8,.2,1.4,.35,1.69,.14,.29,.35,.59,.51,1.33,.19,.74-.04,.94,.19,1.58,.24,.65,.06,.62,.12,1.15,.06,.53-.02,.64,.23,1.01,.27,.37,.38,.46,.72,1.06,.35,.6,1.23,1.3,1.04,1.37-.19,.07-1.11,.31-.87,.77,.25,.46,.96,.67,1.49,.99,.54,.31,1.03,.82,1.2,1.34,.19,.53-.21,1.64,.18,1.8,.39,.15,.92,.68,.66,.9-.26,.22-.08,.84-.04,1.16,.04,.32-.19,1.21-.42,2.26-.21,1.05-.38,2.37,.44,2.67,.84,.3,1.7,1.3,1.8,2.31,.12,1.02,.26,2.71,.37,3.3,.13,.59-.19,1.12,.33,1.36,.51,.24,2.21,.39,2.89,.9,.69,.52,1.33,.97,1.74,2.14,.42,1.15,.57,1.82,1.22,1.84,.64,.02,.93,.26,.9,1.24-.03,.98-.32,1.71,.08,2.37,.41,.67,.78,1.25,2.25,1.19,1.46-.06,4.21,.19,6.13,.21,1.91,.04,3.13,.15,3.55-.09,.43-.23,.71-.25,1.28-.45,.56-.2,1.16-.42,1.69-.69,.54-.28,1.16-.2,1.3,.55,.15,.75-.02,1.36,.35,1.56,.38,.21,.64,.83,.36,.97-.29,.14-1.46,.53-1.5,.88-.05,.36,.23,1.23-.09,1.76-.31,.53-1.04,.04-1.43,.98-.38,.93,.16,1.51-.75,2.05-.9,.54-1.78,1.27-1.64,2.36,.14,1.09-1.19,2.24-1.95,3.27-.78,1.04-1.66,2.37-2.26,3.05-.6,.68-1.92,1.37-3.03,1.46-1.11,.1-1.69,.7-1.79,1.11-.11,.42-.61,1.14-1.82,1.66-1.21,.52-2.47,1.01-2.92,1.64-.45,.63-1.49,1.38-2.23,1.69-.74,.3-.94,.12-1,.73-.08,.62-.17,1.08-.66,1.25-.49,.17-1.12-.07-1.17,.75-.04,.82-.57,1.47-1.12,1.71-.55,.24-1.51,1.48-2.23,1.81-.73,.35-1.45,.57-2.09,1.47-.66,.91-.9,2.09-.49,2.42,.41,.32,.9,.99,.46,1.53-.44,.54-.82,2.07-.64,2.59,.19,.53,1.02,.36,1.06,.94,.04,.57,.24,1.14,.63,1.51,.39,.36,.83,.92,.74,1.59-.1,.67-.07,1.21,.09,1.67,.16,.45,.16,.95-.09,1.42-.25,.47-.15,.77,.04,.83,.2,.06,.34-.12,.13,.8-.21,.92-.27,1.11,.25,1.77,.53,.66,.61,1.6-.39,2.09-1.02,.49-2.17,1.07-2.72,1.27-.56,.2-.54-.31-.94-.13-.4,.18-.82,.42-1.67,.76-.84,.35-1.48,.49-1.8,.61-.35,.12-.99,.57-1.73,1.08-.75,.52-.81,.71-1.54,1.01-.73,.31-2.78,.37-2.99,.87-.2,.49-.02,.89,.24,1.94,.25,1.05,.43,1.2,.69,1.11,.25-.1,.34,.13,.19,.9-.14,.78-.75,2.04-.54,2.6,.2,.56,.29,.57-.35,.8-.63,.23-2.84,.43-3.63,.84-.79,.4-1.55,.04-1.41,.89,.13,.84-.11,1.01-.46,1.68-.36,.68-.95,.9-1.07,1.53-.11,.63,.09,1.07-.41,1.33-.49,.26-2.38,.9-3.54,1.32-1.16,.41-2.47,1.22-3.14,1.75-.65,.53-4.08,.78-5.46,.44-1.4-.34-1.16-.3-2.39-.37-1.2-.07-1.58-.66-2.48-.81-.9-.14-2.36,.04-2.94-.05-.58-.09-1.16-.51-1.74-.86-.58-.33-1.05-.09-1.25-.78-.2-.68-.43-1.07-.56-1.44-.13-.38,.02-.64,.45-.63,.44,.01,.63-.14,.33-.5-.29-.36-1.15-.86-1.98-2.59-.84-1.73-1.26-2.21-2.14-3.25-.88-1.03-2.42-2.26-2.63-3.24-.23-.97-.81-.81-.51-1.89,.29-1.07-.56-2.04-1-3.15-.44-1.11-.57-1.24-.48-1.66,.11-.42,.52-.23-.5-1.89-1.02-1.66-2.07-2.93-2.23-3.38-.16-.46,.28-.74-.29-1.51-.56-.77-1.22-.58-1.54-2.15-.31-1.58-.12-1.66-.09-2.43,.01-.76,.1-.75,.44-1.46,.33-.72,.88-.49,.63-1.2-.26-.71-.35-1.06,0-1.77,.34-.72,1.43-1.23,1.79-1.49,.37-.26,.55-.95,.38-1.4-.15-.45-.6-2.99-.74-3.5-.14-.5-.53-.66-.74-.99-.21-.35-.17-1.08,.17-1.42,.34-.34,.16-1.21,.01-1.61-.15-.42-.52-.28-.46-.81,.07-.53,.21-.58-.15-1.13-.36-.54-.76-.95-.76-1.29,0-.34,.41-.78,.16-1.45-.24-.67,.05-.57-.15-1.47-.19-.9-.68-1.53-1.51-1.87-.84-.34-1.27-.35-1.54-.97-.26-.62-.87-1.04-.62-1.63,.26-.6-.01-1.22-.48-1.22-.46,0-.66,.02-.81-.39-.15-.42,.38-.26,.32-1.01-.05-.74-.46-1.19-.69-1.7-.22-.5-.32-.64,.43-.91,.75-.27,.76-.36,.89-1.04,.14-.68,.29-1.42,.41-2.06,.11-.63,.1-1.47,.38-2,.28-.52,.95-1.35,.86-1.82-.08-.49-1.04-.35-1.15-.65-.12-.3-.07-1.84-.58-2.33-.52-.49-1.27-.35-2.17-.49-.9-.15-1.95,.23-2.45-.1-.5-.32-.84-.7-.95-1.6-.11-.89-.39-2.15-.89-2.85-.51-.71-.54-.6-1.16-.77-.61-.16-1.06,.34-1.14-.22-.08-.57,.18-.91-.49-.92-.7-.01-1.37-.02-1.59,.06-.22,.08-2.4,.61-3.08,.85-.67,.24-1.18,.35-2.29-.02-1.11-.37-1.57-.03-1.89-.77-.3-.74-.23-1.22-.71-1.4-.48-.17-.62,.05-1.06,.12-.43,.07-.98-.02-1.65-.38-.67-.35-.32-.99-1.01-.69-.7,.29-.99,.91-1.76,.63-.78-.27-1.6-.36-2.41-2.14-.81-1.78-1.43-2.92-2.08-4.12-.65-1.21-1.71-1.83-1.64-2.71,.07-.87,.07-2.18,.14-2.8,.08-.61,.75-1.7,.46-2.48-.28-.79-1.13-.9-1.03-1.61,.08-.71-.06-1.34-.12-1.95-.05-.62,.1-1.27-.18-1.71-.3-.45-.64-.84-.59-1.86,.05-1.04-.03-1.98-.05-2.3-.04-.33,.49-1.33,.5-2,.02-.68-.07-1.5,.16-1.92,.23-.42,.66,.07,1.1-.35,.45-.41,.38-1.53,.85-1.74,.48-.21,.81-.71,.86-1.28,.05-.56,.24-1,.67-1.67,.44-.67,.66-1.22,.77-1.85,.12-.63,.59-1.77,.73-1.99,.13-.22-.34-1.99-.21-2.46,.13-.47,.47-.59,1.26-1.3,.81-.71,1.7-1.79,1.93-2.09,.23-.29,1.16-1.34,1.74-2.06,.6-.72,2.02-2.17,2.86-2.88,.84-.73,2.21-1.55,2.21-1.55,.55-.51,1.02-.21,1.8-.49,.78-.28,.52-.7,1.11-.66,.59,.05,1.01,.06,1.62-.53,.63-.58,.89-.72,1.13-.61,.25,.12,.65,.18,.49-.39-.15-.56-.12-.63,.28-1.39,.4-.77,.99-1.44,1.56-1.86,.58-.42,.54-1.39,1.05-1.57,.5-.18,1.49-.33,1.81-.59,.31-.28,.69-.36,1.37-.66,.68-.29,.98-.34,1.53-.96,.56-.62,.66-.6,1.19-1.17,.54-.54,.57-.87,.77-.16,.2,.7,.4,1.26,1.48,1.81,1.08,.55,2.38,1.01,3.28,.74,.89-.26,3.19-.67,4.34-.77,1.15-.11,2.5,.04,3.7,.34,1.2,.29,1.46,.47,1.62,.88,.14,.42,.26,.58,.81,.38,.55-.2,1.54-.5,2.27-.19,.73,.31,.64,.5,.99,.89,.35,.4,.87-.05,1.43-.2,.57-.15,1.46-.16,1.46-.58,.01-.42,.67-.6,.88-.32,.21,.3-.28,.83-.07,.97,.21,.13,1.56,.17,.8,.8-.76,.64-1.52,1.12-1.18,1.77,.34,.66,.97,1.26,.28,1.65-.68,.41-1.49,.75-1.44,1.2,.05,.45-1.61,.58-.85,1.97,.76,1.39,1.86,2.03,2.23,1.9,.38-.13,1.62-.69,2.64,.1,1,.78,1.74,1.25,1.75,2.02,.03,.77-.04,1.62,.62,2.01,.66,.39,1.1,.44,1.22,.8,.13,.37,.85,.48,1.24,.55,.39,.06,1.5,1.01,1.9,.97,.4-.04,1.94-.07,2.22-.74,.29-.67,.82-2.11,.88-2.65,.07-.54,.1-.61,1.1-.51,1.03,.11,3.07,.42,3.27,.86,.21,.45,0,1.3,.79,1.48,.79,.18,1.47-.11,2.21,.51,.74,.61,.84,1.46,1.55,1.42,.7-.05,1.66-.18,2.25,.33,.59,.52,2.16,1.56,3.28,1.32,1.1-.24,3.83-.6,4.5-.63,.67-.03,1.33,1.09,1.64,1.38,.32,.31,1.51,.59,1.92,.72,.41,.13,.96-.5,1.53-1.07,.57-.58,1.48-1.1,1.37-1.84-.12-.73,.03-1.21,.41-1.76,.38-.54,.5-.23,.69-.66,.21-.44,.52-.6,.54-1.12,.02-.53,.35-1.21,.19-1.94-.16-.73-.3-1.14,.07-1.53,.38-.39,.76-.21,.76-.94,0-.73-.6-.52-.71-.11-.12,.41-.37,.29-1.21,.24-.86-.07-1.04-.16-1.38,.07-.34,.22-1.47,.68-2.15,.24-.68-.43-1.1-1.62-1.7-1.57-.61,.06-1.12,.66-1.65,.75-.53,.09-2.2-.61-2.85-.73-.68-.13-.93,.17-1.64-.2-.7-.37-.01-.04-.08-.69-.07-.64-.17-.61-.4-1.26-.23-.64-.09-1.15-.46-1.28-.36-.13-1.83,.09-1.66-.29,.18-.36,.37-1.27,.73-1.29,.36-.02,1.08-.34,1-1.13-.08-.81-.5-.96-.67-.96-.15,0-.74-.2-.79-.5-.05-.28,.13-.77,.57-1.03,.43-.26,.63-.85,.32-1-.31-.15-2.44-.17-3.62,.15-1.2,.32-2.64,.32-1.6,1.77,1.03,1.44,1.52,1.79,1.66,2.46,.13,.68-.33,.84-.74,.69-.43-.16-.39,.08-.76,.21-.37,.13-1.83,.24-1.37,.65,.45,.41,.96-.35,1.14-.42,.19-.06,.09,.09,.13,.64,.04,.56-.24,1.07-.6,.79-.36-.28-.38,.09-.5,.34-.11,.26-.27,.1-.83,.3-.55,.19-.52,.29-.7-.22-.19-.51-.38-.33-.62-.4-.23-.08,.13,.11-.15-.88-.3-.98-.66-.65-.47-1.28,.18-.64,.09-.77,.81-.91,.73-.15,1.45,.41,1.52,.03,.07-.39-.88-.41-1.19-.56-.3-.15-.46-.3-.6-.83-.14-.51-.18-.76-.52-1.58-.33-.81-.83-.17-.64-1.22,.18-1.06,.14-1.76,.44-2.39,.3-.62,.6-.94,.08-1.54-.53-.58-1.32-1.03-1.69-1.21-.37-.17-.65-.39-1.38-.84-.74-.47-.2-.4-.85-.74-.64-.34-1.07-.08-.76-.55,.28-.48,.97-.61,.76-1.21-.22-.6-.07-.76-.48-1.34-.42-.58-.56-1-.63-.61-.06,.39-.46,.89-.73,.84-.28-.06-.72-.57-.55-.95,.18-.38,.7-.51,.06-.8-.62-.3-.99-.32-.87,0,.11,.32-.28,1.14-.45,1.2-.19,.07-.55,.51,.01,.77,.57,.26,1.37,.23,1.26,.64-.11,.41-.53,2.11-.26,2.48,.29,.36,1.63,.88,1.88,1.31,.26,.43,.45,1.09,.62,1.59,.18,.51,.68,.59,1.21,.92,.53,.32,.89,1.18,.98,1.57,.08,.38-.84,.98-1.01,.52-.16-.47-.6-1.4-.98-1.31-.39,.09-1.11,.82-1,1.14,.11,.32,.64,.34,.55,.79-.11,.45-.89,.73-1.1,.86-.22,.13-.17,.68-.56,1.19-.4,.5-.77,.48-1.45,.61-.67,.15-1.27-.1-.82-.42,.45-.33,1.59-1.66,1.61-2.5,0-.83-.76-2.12-1.3-3.01-.53-.9-.72-1.04-1.28-1.26-.55-.22-.28-.32-.54-1.21-.26-.89-.85-1.36-1.04-1.91-.21-.55-.29-.94-.58-1.61-.28-.67-.17-1.19-.53-.9-.37,.29-.02,.79-.34,.8-.31,0-.7-.37-.93-.3-.24,.08-1.19,.43-1.73,.37-.54-.06-1.01-.05-1.47,.11-.47,.17-.68-.01-1.6-.25-.92-.25-1.16-.52-2.12-.29-.95,.24-1.21,.54-1.31,.98-.08,.46-1.5,1.43-1.98,1.44-.45,.01-1.7,.15-2.3,.36-.6,.21-1.27,.24-1.59,.93-.33,.68-.76,2.35-1.14,2.48-.36,.13-2.02,.87-2.33,.99-.32,.12-.77,.9-1.28,.97-.48,.07-1.47,.07-2.37-.09-.88-.16-1.18-.72-1.75-.88-.58-.16-.89-.15-1.26-.01-.37,.13-.84,.81-1.07,.33-.23-.49,.07-2-.05-2.16-.11-.17-.56-.26-1.06-.35-.5-.08-1.1-.02-.78-.56,.34-.53,.56-.92,.73-1.76,.16-.84,1.02-1.66,2.21-2.93,1.22-1.26,2.48-2.96,2.72-3.72,.24-.76,.59-1.52,.94-2.04,.33-.54,.75-.65,.91-.34,.16,.3,.27,.32,.82,.12,.55-.19,1.23,.25,1.65,.4,.41,.16,.58,.16,.75,.67,.18,.51,.69,.63,1.12,.79,.42,.16-.1,.45,1.24,.85,1.34,.4,1.34-.48,1.77-.73,.43-.26,.93-.13,1.06-.53,0,0-.16-.41,.02-.62,.18-.21,.48-.31,.68-.46,.21-.14,.28-.03,.32,.25,.02,.29,.11,.63,.29,.42,.18-.22,.13-.34,0-.74-.14-.39,.13-.34,.31-.77,.18-.43,.29-.73,.31-1.3,.02-.55,.39-.68,.44-.95,.04-.28-.05-.02-.21-.45-.15-.42-.11-.62-.31-.56-.19,.07-.27,.47-.53,.04-.26-.41-.02-.35-.55-.6-.53-.26-.63-.22-.32-.51,.29-.29,.87-.46,.99-.72,.13-.27,.77-.31,.96-.42,.19-.1,.24-.05,.55,.29,.3,.34,.27,.16,.61,.15,.33,0,.3,.45,.6,.15,.3-.3,.51-1.15,.87-1.01,.34,.13,1.18,.65,1.97,.88,.79,.24,1.04,.36,1.41-.06,.36-.43,.41-.52,.8-.66,.39-.13,1.15-.59,1.91-.83,.76-.24,1.85-.52,2.24-.25,.39,.26,.3,.15,.64-.08,.31-.22,.45-.39,.76-.95,.32-.55,.29-.75,.54-.85,.27-.1,.6,.12,.88,.05,.27-.06,1.06-.23,1.45-.37,.38-.14,.85-.79,1.2-.55,.36,.25,.85,.51,1.36,.59,.5,.07,.79,.16,.98-.13,.19-.29-.36-1.09-.15-1.46,.19-.36,1.01-.58,1.21-.72,.2-.15,.56-.5,.53-.27-.02,.23-.12,1,.08,1.34,.19,.33,.55,.61,.9,.78,.36,.17,.74,0,1.1-.03,.37-.02,1.06,.18,1.27,.22,.19,.04,.72,.18,.71,.33-.02,.15-.45,.91-.08,.72,.39-.17,.77-.42,1.08-.41,.29,0,1.67,.14,2.02,.09,.35-.05,1.27-.09,1.67-.07,.41,0,1,0,.77,.2-.22,.19-.74,.41-.43,.53,.3,.11,1.08-.06,1.22-.22,.12-.15,.17-.55,.61-.77,.43-.24,1.01-.44,1.34-.81,.31-.36-.04-.8,.58-1.02,.63-.22,.64-.6,.86-.9,.22-.31,.8-.55,1.05-.78,.25-.23,.52-.62,.63-.3,.12,.32,.42,.55,.62,.7,.2,.15,.2,.66,.76,.25,.54-.42,.83-.86,1.02-1.18,.18-.33,.39-.43-.04-.43-.44,.01-.87-.24-1-.19-.14,.04-.3-.2-.23-.51,.07-.32,.4-.73,.89-.84,.49-.1,1.08,.03,1.52-.1,.43-.12,1.8,.5,2.27,.48,.47-.02,2,0,2.18-.3,.19-.29,.48-.53,.06-.64-.41-.12-2.28-.81-3.07-.56-.79,.25-1.71,.47-2.45,.58-.73,.11-1.29,.1-1.44-.34-.16-.42-.46-1.08-.15-1.42,.33-.34,.74-.52,.92-1.07,.18-.54,.31-.8,.25-1.05-.05-.24-.18-.3,.46-.68,.63-.38,1.61-.76,1.89-1.09,.29-.33,.49-.4,1.02-.45,.55-.04,.65,.15,.83-.15,.2-.29,.98-.24,.9-.58-.08-.34-.99-.79-1.37-.83-.38-.05-.42-.44-.66-.21-.25,.24-.37,.43-.76,.57-.4,.14-.5,.37-.63,.63-.12,.27,.25,.39-.77,.61-1.03,.22-.79,.28-1.06,.46-.28,.17-1.02,.03-1.44,.19-.44,.15-1.52,.54-1.61,.65-.11,.11-.64,1.34-.82,1.73-.19,.39-.48,.61-.29,1.06,.19,.45,.34,.66,.04,.95-.31,.29-1.2,.57-1.46,.67-.26,.09-1.03,.52-1.29,1.04-.25,.54-.01,.6-.49,.92-.47,.32-.86,.38-.96,.9-.1,.52-.55,.34-1.11,.69-.58,.36-1.44,.84-2.15,1.11-.73,.26-1.52,.73-1.54,.03-.03-.69,.36-1.49,.47-2.31,.12-.82-.39-.86,.11-1.63,.5-.77,.93-1.55,.95-2,.02-.45-.18-.27-.54-.06-.36,.21-.95,.34-1.31,.47-.36,.13-.68,.57-.85,.82-.17,.24-.27,.18-.84,.34-.57,.17-.67,.28-1.11,.32-.42,.04-1.51-.19-1.65-.51-.15-.31,.85-.19,.92-.95,.05-.77-.57-.84-.03-1.13,.52-.3,1.23-.77,1.45-.67,.22,.11,.44,.39,.61-.04,.18-.43-.25-1.01,.04-1.34,.29-.33,.48-.54,.78-.5,.31,.04,.88,.61,1.08,.35,.21-.25,.21-.66-.19-.63-.39,.03-.89-.31-.1-.81,.77-.5,1.39-.54,2.06-.63,.66-.1,.82,.25,1.09,.16,.27-.1,.89-.02,1.16-.38,.28-.36,.6-.07,.89-.58,.3-.52,.24-.79,.82-1.04,.58-.24,.63-.4,1.01-.58,.38-.17,.62-.22,1.01-.36,.39-.14,.79-.09,.85-.3,.08-.21-1.12-.33-.5-.59,.6-.25,.8-.32,1.15-.29,.33,.02,.57-.58,1.05-.78,.48-.21,.39,.78,.81,.41,.42-.38-.04-1.06,.35-1.2,.4-.14,1.01-.4,1.32-.55,.32-.15,.76-.23,.67-.09-.1,.15-.75,.9-.35,.9,.41,0,.9-.28,1.22-.43,.32-.15-.33-.58-.11-.7,.22-.11,.85,.1,1.31-.03,.48-.13,1.56,0,1.95-.15,.39-.14,1.01-.06,1.17,0,.17,.05,.37,.2,.63,.03,.28-.17-.7-.34-.34-.54,.38-.21,1.02-.03,1.51-.02,.48,.01,.51,.41,.74,.51,.22,.11,.55,.4,1.02,.19,.48-.21,.52-.51,.84-.34,.33,.18,.16,.35,.73,.37,.56,.02,1.15,.03,1.15,.43,0,.41-.64,.49-.83,.67-.2,.18,.04,.31,.46,.17,.42-.15,1.05-.27,1.25-.13,.2,.16-.12,.41,.1,.71,.22,.29,.36,.06,.95,.18,.6,.12,1.34,.25,1.91,.46,.55,.21,.77,.42,.95,.91,.18,.49-.2,.36,.41,.73,.62,.38,.99,.79,.76,1.17-.23,.39-.67,.8-1.59,.5-.92-.3-1.32-.09-1.72-.57-.39-.48-1.4-1.12-1.24-.67,.17,.46,.82,.74,.65,1.5-.18,.76-.7,1.43-.38,1.95,.34,.5,1.62,1.08,1.63,.74,.03-.34-.5-.58-.6-1.19-.1-.59-.39-.85,.43-.96,.81-.1,.75,.14,1.22,.12,.47-.03,.45-.09,1.24-.37,.79-.28,.22-.71,.79-.65,.58,.05,.91,.34,1.16,.25,.26-.09,.59-.18,.77,.09,.17,.27,1.2,.57,1.2,.16,0-.4-.23-.84-.53-1.18-.3-.33-.14-.61-.28-1-.14-.39-.82-.52-.74-.81,.09-.29,.59-.03,.96,.09,.37,.13,.35,.06,1,.13,.65,.06,1.13,.26,1.04,1.06-.08,.81-.47,1.09,.24,1.07,.68-.03,1.31,.16,1.06-.53-.24-.69-.55-.72-.41-1.15,.14-.42-.56-.32-.47-.68,.08-.37,.16-.17,.75,.02,.58,.2,.77-.2,.86,.06,.1,.26-.38,1.2,.22,1.03,.61-.18,1.16-.08,1.61-.36,.45-.27,1.29-.69,1.44-.4,.14,.28,.18,.6,.74,.54,.58-.05,1.31-.28,1.73-.14,.42,.15,1.09,1.01,1.25,.52,.15-.5,.16-.79-.25-1.01-.41-.23-.56-.55,.31-.48,.86,.06,2.05,.07,2.93,.24,.87,.17,.67,.02,1.62,.38,.94,.36,.95,.39,1.06-.02,.12-.4-.68-.56-1.25-.98-.56-.44-.96-.54-1.33-.96-.38-.42-.51-.52-.34-.84,.18-.33,.04-.49,.21-1.08,.17-.57-1.01-.88-.48-1.04,.54-.15,1.24,.25,1.4,.6,.16,.35,.4,.19,.68,.35,.28,.16,.38,.75,1.13,1.3,.75,.54,1.33,1.04,1.51,1.53,.17,.49,.59,.63,1.13,1.1,.54,.47,1.45,1.36,1.45,2.18,0,.81,.72,1.51,.79,.56,.07-.95-1.37-2.08-.73-2.13,.65-.05,1.49,.13,1.83,.45,.33,.32,1.66,1.77,1.87,1.25,.23-.52-.2-.59-.67-.86-.46-.28-.88-.83-1.7-1.06-.83-.23-1.31-.02-1.95-.38-.65-.35-1.38-.97-1.86-1.55-.46-.57-1.04-1.07-1.16-1.39-.12-.33-.87-.9-.79-1.19,.08-.28,.47-.42,.74,.03,.28,.45,.81,1.01,1.15,1.33,.34,.33,1.26,.99,1.21,.52-.04-.46-1-.85-1.22-1.26-.22-.4-.9-.85-.07-.82,.82,.04,.72,.48,1,.66,.3,.19,.99-.02,1.53,.24,.54,.25,2.42,1.9,2.39,1.54-.01-.37-1.04-1.36-1.84-1.66-.81-.31-1.27-.22-1.54-.6-.28-.38-1.29-.69-.8-.89,.47-.21,1.51-.32,1.21-.51-.29-.19-1.11,0-1.7-.35-.6-.34-1.22-.71-.71-.96,.51-.25,1.15-.71,.64-.97-.49-.26-1-.13-.79-.46,.21-.33,.26-.83,.75-.68,.5,.16,1.02-.03,1.46,.14,.43,.18-.17,.87,.59,.56,.78-.31-.92-1.33,.14-1.19,1.04,.14,2.41-.57,2.94-.13,.53,.44,2.7,2.91,3.37,2.7,.66-.2,.75-.68,1.17-1.26,.41-.6,1.41-.69,2.27-.45,.86,.24,1.45-.08,.35-.87-1.1-.79-4.92-1.19-5.68-1.95-.74-.76-1.76-1.62-.41-1.25,1.17,.31,3,.81,3.73,.84,21.88,9.11,40.8,25.17,53.2,46.49-.2,.34-.37,.69-.45,.99-.33,1.09-.28,1.24-.85,1.44v-.04c-.55,.21-1.35,1.04-.8,1.89,.54,.82-.13,0,.95,.42,1.08,.42,1.26-.49,1.53,1.44,.26,1.93,1.06,4.02,1.56,4.72,.51,.71,2.26,2.62,2.48,3,.22,.39,.77,2.26,1.05,3.51,.28,1.26,1.54,5.96,2.09,7.5,.55,1.53,1.46,4.89,1.46,5.73,.01,.84,.01,3.8-.14,4.33-.16,.52-.65-.03-.51,.72,.14,.76,.21,1.4,.06,2.39-.16,.99-.8,.72-.55,1.43,.26,.71,.95,2.87,.94,3.9-.02,1.02,.32,2.33-.24,2.19-.55-.13-1.16-.88-.98-1.92,.17-1.03,.12-2.71-.1-3.44-.21-.72-.72-.75-.8-.04-.09,.7-.52,2.21-.39,3.18,.14,.97,.23,1.91,.57,2.88,.35,.98,.51,1.43,1.4,3.56,.89,2.14,1.64,4.7,1.74,6.27,.1,1.57,.01,4.05-.37,4.86Zm-166.79,15.35c.03-.63,.42-1.35,.62-1.16h0c.19,.19,.17,.69,.37,.83,.23,.13,.54,.72,.28,.84-.27,.11-.29-.18-.52,.11-.24,.27-.12,.44-.34,.58-.23,.15-.25-.05-.25-.05-.17-.54-.18-.52-.16-1.15Zm11.9-73.62c-.1-.27,.38-.59,.7-.63,.32-.04-.05,.09,.13,.55h0c.15,.45-.35,.89-.52,.95-.17,.06-.35-.02-.35-.02-.08-.53,.12-.6,.03-.85Zm2.95,.05c-.44,.12-.82,0-.82,0-.33,.04-.52,0-.02-.55,.51-.55,1.03-.66,1.12-.4,.09,.26,.15,.83-.29,.95h0Zm-.45,.42c.23,.24,.14,.82-.19,.81-.33-.03-.63-.22-.63-.22h0c.04-.34,.59-.84,.83-.59Zm2.4-1.75c.26,.24,.4,.52,.19,.75h0c-.21,.22-.25,.34-.7,.44-.44,.08-.38-.34-.38-.34-.15-.43,.61-1.08,.88-.84Zm8.04-.26h0c-.14,.06-.21,0-.22,0-.15-.67-.67-1.07-.41-1.38,.27-.31,.58-.38,.82-.54,.23-.17,.71-.73,.73-.22,0,.5-.52,1.16-.67,1.46-.14,.31-.12,.63-.26,.68h0Zm-.23,.89c-.01,.33-.44,1.25-.57,1.85-.13,.6-.02,.98-.41,1.08-.4,.1-.79,.19-.83,.67-.04,.49-.16,.83-.46,.84-.28,.02-.5-.11-.5-.11-.2-.57,.59-1.23,.08-1.09-.5,.14-.69,.67-.79,.37-.1-.29-.06-.64,.37-1.19,.45-.53,1.41-1.39,1.85-1.68,.45-.29,1.26-1.09,1.26-.74Zm2.06,5.42c.65,.03,.98,.37,1.87,.57,.86,.18,1.82,.14,1.96,.31,.14,.16,.1,1.1-.22,1.64-.31,.54-.62,1.19-.99,1.33-.38,.14-.76-.08-.76-.08-.43-.39,.03-.67-.64-.99-.66-.32-1.23-.49-1.72-1.12h0c-.47-.63-.13-1.69,.5-1.66Zm15.24,9.14c.38-.1,.88,.1,1.17,.21,.29,.1,.86,.15,1.22,.11,.38-.05,.34,.22,.77,.27,.45,.05,1.22-.14,1.43,.43,.19,.56,.08,1.06-.61,1.14-.68,.08-1.31-.37-2.08-.61-.75-.23-1.36-.27-1.36-.27-.37,.05-.35,.56-.78,.29h0c-.44-.27-.49-.42-.08-.69,.4-.28-.07-.78,.32-.88Zm4.26-5.12c.59-.22,.74-.14,.76,.37,.01,.49-.29,.61-.47,.67-.2,.07-.45,.07-.45,.07-.26-.46-.45-.89,.15-1.11h0Zm.69-1.47c.17-.36,.01-1.05,.45-.88,.44,.18,.79,.22,.87,.66,.07,.44-.15,.78-.32,.88-.18,.11-.42,.02-.42,.02h0c-.48-.38-.76,.11-.93-.13-.17-.24,.18-.19,.35-.55Zm9.51,9.19c.46,.09,1.13,.18,1.06-.09-.05-.28,.54-.86,.75-.39,.22,.48,.57,.39,1.01,.23,.45-.16,.88-.61,1.36-.36,.46,.26,.93,.47,.7,.56-.23,.08-1.14,.24-1.22,.73-.08,.49-.76,.35-1.24,.56-.46,.22-.95,.64-1.34,.95h0c-.4,.32-.9,.12-.89,.12-.39-.63-.41-1.04-.37-1.4,.04-.35-.28-1,.18-.91Z"/><path class="cls-1" d="M83.12,305.86l-10.98-3.25c-5.2-1.54-10.45,.71-11.72,5.02l-4.24,14.32c-1.28,4.32,1.9,9.06,7.1,10.6l10.98,3.25c5.2,1.54,10.45-.71,11.72-5.02l4.24-14.32c1.28-4.31-1.9-9.06-7.1-10.6Zm3.99,10.43c-.67,3.17-2.87,2.56-5.81,1.69-2.47-.73-11.69-3.55-14.51-4.68-2.21-.89-3.15-2.15-2.11-4.71,1.03-2.54,3.41-3.44,6.72-2.15,0,0,8.7,2.74,12.41,4.13,2.79,1.05,3.83,3.25,3.31,5.71Z"/></svg>